<svg height="300px" width="300px" fill="#000000" xmlns="http://www.w3.org/2000/svg" xmlns:xlink="http://www.w3.org/1999/xlink" version="1.1" x="0px" y="0px" viewBox="0 0 100 100" enable-background="new 0 0 100 100" xml:space="preserve"><g><g><path d="M45,51.262v-2.523c0-0.884-0.352-1.732-0.977-2.357L32.785,35.143c-0.625-0.625-1.473-0.977-2.356-0.977H8.333    C6.493,34.167,5,35.659,5,37.5v25c0,1.841,1.493,3.333,3.333,3.333h22.095c0.884,0,1.731-0.352,2.356-0.977l11.239-11.238    C44.648,52.993,45,52.146,45,51.262z M29.047,59.167h-17.38V40.833h17.38L38.214,50L29.047,59.167z M53.618,55.977    C52.993,55.352,52.146,55,51.262,55h-2.526c-0.884,0-1.732,0.352-2.357,0.977L35.143,67.212c-0.625,0.625-0.977,1.473-0.977,2.356    v22.099c0,1.841,1.493,3.333,3.333,3.333h25c1.841,0,3.333-1.492,3.333-3.333V69.572c0-0.884-0.352-1.732-0.977-2.357    L53.618,55.977z M59.167,88.333H40.833V70.949l9.165-9.165l9.168,9.168V88.333z M91.667,34.167H69.568    c-0.884,0-1.731,0.352-2.356,0.977L55.977,46.378C55.352,47.003,55,47.852,55,48.735v2.529c0,0.884,0.352,1.731,0.977,2.356    l11.235,11.235c0.625,0.625,1.473,0.977,2.356,0.977h22.099c1.841,0,3.333-1.492,3.333-3.333v-25    C95,35.659,93.508,34.167,91.667,34.167z M88.333,59.167H70.949L61.782,50l9.167-9.167h17.384V59.167z M46.378,44.023    C47.003,44.648,47.852,45,48.735,45h2.526c0.884,0,1.731-0.352,2.356-0.977l11.238-11.239c0.625-0.625,0.977-1.473,0.977-2.356    V8.333C65.833,6.493,64.341,5,62.5,5h-25c-1.841,0-3.333,1.493-3.333,3.333v22.098c0,0.884,0.352,1.732,0.977,2.357L46.378,44.023    z M40.833,11.667h18.333v17.38l-9.168,9.168l-9.165-9.165V11.667z"/></g></g></svg>